# xmcd
# Track frame offsets:
#    150
#    23962
#    45355
#    69745
#    91225
#    115400
#    144682
#    165120
#    189207
#    213950
#    240080
#    261572
#    264575
#    289707
#    310015
#    328082
#
# Disc length:4672 Seconds
# Revision: 0
# Processed by: cddbd v1.4PL0 Copyright (c) Steve Scherf et al.
# Submitted via: Music Manager release:0.3alpha1
#
DISCID=db123e10
DTITLE=From The Soul of Man - Kenny Lattimore
DYEAR=1998
DGENRE=
TTITLE0=Days Like This
TTITLE1=Trial Separation
TTITLE2=If I Lose My Woman
TTITLE3=Make Believe
TTITLE4=Just Can't Get Over You
TTITLE5=I Love You More Than You'll Ever Know
TTITLE6=Destiny
TTITLE7=Tomorrow
TTITLE8=While My Guitar Gently Weeps
TTITLE9=Heaven And Earth
TTITLE10=All My Tomorrows
TTITLE11=Interlude: Introspective Mood
TTITLE12=Well Done
TTITLE13=Love Will Find A Way
TTITLE14=For You
TTITLE15=If You Could See You (Through My Eyes)
EXTD=\nLABEL:Columbia \nYEAR: 1998
EXTT0=
EXTT1=
EXTT2=
EXTT3=
EXTT4=
EXTT5=
EXTT6=
EXTT7=
EXTT8=
EXTT9=
EXTT10=
EXTT11=
EXTT12=
EXTT13=
EXTT14=
EXTT15=
PLAYORDER=
